<?xml version="1.0" standalone="no"?>
<!DOCTYPE svg PUBLIC "-//W3C//DTD SVG 20010904//EN"
 "http://www.w3.org/TR/2001/REC-SVG-20010904/DTD/svg10.dtd">
<svg version="1.0" xmlns="http://www.w3.org/2000/svg"
 width="16.000000pt" height="16.000000pt" viewBox="0 0 16.000000 16.000000"
 preserveAspectRatio="xMidYMid meet">
<metadata>
Created by potrace 1.11, written by Peter Selinger 2001-2013
</metadata>
<g transform="translate(0.000000,16.000000) scale(0.006299,-0.006299)"
fill="#000000" stroke="none">
<path d="M1150 2527 c-3 -3 -30 -7 -60 -10 -50 -6 -84 -14 -205 -49 -72 -21
-226 -97 -311 -153 -107 -72 -223 -182 -299 -283 -33 -45 -65 -81 -72 -82 -15
0 -96 -162 -128 -255 -88 -263 -90 -551 -4 -810 82 -246 234 -462 439 -622 60
-46 198 -133 212 -133 4 0 17 -4 30 -9 13 -5 28 -10 33 -11 6 -1 15 -6 21 -11
13 -10 112 -41 117 -37 2 2 11 -3 20 -10 9 -8 21 -11 26 -8 5 4 12 2 16 -3 3
-5 13 -9 23 -9 9 0 31 -3 47 -6 105 -25 344 -25 455 -1 14 4 36 8 50 11 138
28 347 125 471 218 82 62 213 192 248 246 8 14 21 31 28 38 45 47 150 264 180
372 68 247 64 521 -12 747 -80 238 -238 464 -423 605 -31 24 -59 45 -62 48 -3
3 -14 10 -25 17 -233 140 -434 199 -690 202 -67 1 -123 0 -125 -2z"/>
</g>
</svg>
